<?xml version="1.0" encoding="UTF-8"?>
<svg xmlns="http://www.w3.org/2000/svg"
     viewBox="173 240 908 692"
     width="908" height="692"
     role="img" aria-labelledby="title desc">
  <title id="title">SocialBrowser SB logo</title>
  <desc id="desc">White SB monogram with an orange accent, on a transparent background.</desc>
  <g shape-rendering="geometricPrecision">
    <path d="M248,377 L235,402 L226,430 L226,435 L225,436 L225,441 L224,442 L224,449 L223,450 L223,481 L224,482 L224,490 L225,491 L225,496 L226,497 L226,501 L227,502 L229,513 L233,525 L237,533 L237,535 L249,557 L264,577 L284,597 L309,615 L322,622 L324,622 L338,629 L353,634 L364,636 L365,637 L375,638 L376,639 L383,639 L384,640 L393,640 L394,641 L524,641 L525,642 L530,642 L531,643 L534,643 L543,646 L551,650 L561,657 L571,667 L579,679 L583,688 L583,691 L585,696 L585,700 L586,701 L586,720 L585,721 L584,730 L580,739 L580,741 L571,756 L557,770 L546,777 L533,782 L529,782 L523,784 L225,784 L225,881 L528,881 L529,880 L536,880 L537,879 L550,877 L554,875 L557,875 L569,871 L588,862 L590,860 L603,853 L621,839 L635,825 L647,810 L659,791 L670,767 L675,752 L676,744 L678,739 L679,726 L680,725 L680,709 L681,708 L681,704 L680,703 L680,690 L679,689 L679,683 L678,682 L678,677 L677,676 L677,672 L676,671 L675,664 L673,660 L673,657 L671,651 L666,641 L666,639 L656,621 L641,601 L621,582 L601,568 L592,564 L586,560 L584,560 L579,557 L569,554 L566,552 L563,552 L556,549 L548,548 L547,547 L535,546 L534,545 L525,545 L524,544 L391,544 L390,543 L385,543 L384,542 L377,541 L368,538 L356,532 L347,526 L330,508 L320,488 L320,485 L318,480 L318,475 L317,474 L317,458 L318,457 L318,452 L319,451 L321,441 L328,427 L341,411 L357,399 L377,390 L380,390 L385,388 L389,388 L390,387 L398,387 L399,386 L862,386 L863,387 L870,387 L871,388 L879,389 L888,393 L890,393 L901,399 L910,406 L919,415 L928,428 L931,434 L935,446 L936,455 L937,456 L937,473 L936,474 L936,479 L935,480 L935,484 L934,485 L934,488 L932,494 L922,512 L909,526 L898,534 L883,541 L880,541 L875,543 L871,543 L870,544 L636,544 L636,545 L646,551 L658,560 L666,568 L667,568 L682,584 L697,605 L709,628 L709,630 L712,635 L713,640 L715,642 L718,651 L718,655 L720,659 L721,668 L722,669 L722,673 L724,679 L724,686 L725,687 L725,702 L726,703 L726,719 L725,720 L725,726 L934,726 L936,728 L932,740 L927,750 L918,762 L904,774 L887,782 L879,783 L878,784 L721,784 L720,785 L717,784 L715,785 L714,784 L707,798 L707,800 L703,806 L700,813 L683,838 L656,866 L642,877 L635,881 L636,882 L637,881 L882,881 L883,880 L890,880 L891,879 L900,878 L901,877 L904,877 L908,875 L911,875 L923,871 L933,866 L935,866 L948,859 L960,851 L976,838 L986,828 L999,812 L1004,803 L1008,798 L1017,780 L1020,770 L1022,767 L1024,761 L1024,758 L1025,757 L1025,754 L1027,750 L1028,741 L1029,740 L1030,725 L1031,724 L1031,695 L1030,694 L1029,680 L1028,679 L1028,675 L1027,674 L1025,663 L1021,651 L1013,633 L1011,631 L1006,621 L998,610 L978,589 L990,577 L999,566 L1011,547 L1021,525 L1025,513 L1027,502 L1028,501 L1029,491 L1030,490 L1030,484 L1031,483 L1031,446 L1030,445 L1030,438 L1029,437 L1029,432 L1028,431 L1028,427 L1027,426 L1025,415 L1021,403 L1019,400 L1019,398 L1015,391 L1015,389 L1012,383 L1000,364 L988,349 L970,332 L954,320 L951,319 L939,311 L922,303 L917,302 L914,300 L905,297 L902,297 L894,294 L885,293 L884,292 L870,291 L869,290 L393,290 L392,291 L383,291 L382,292 L371,293 L370,294 L355,297 L340,302 L328,308 L326,308 L311,316 L297,325 L283,336 L265,354 Z" fill="#FFFFFF"/>
    <path d="M713,642 L719,660 L719,664 L720,665 L720,669 L722,675 L722,681 L723,682 L723,690 L724,691 L724,726 L725,727 L934,727 L935,728 L936,727 L936,720 L937,719 L937,702 L936,701 L936,696 L935,695 L934,688 L929,677 L923,668 L910,655 L892,645 L886,643 L877,642 L876,641 L714,641 Z" fill="#FE5F04"/>
  </g>
</svg>
